<svg width="115" height="115" viewBox="0 0 115 115" fill="none" xmlns="http://www.w3.org/2000/svg">
<path d="M0 57.36C0 56.0637 0.43209 54.9295 1.35028 54.0113C2.26847 53.1471 3.40271 52.715 4.59096 52.715H15.6093C16.8515 52.715 17.8777 53.1471 18.7419 54.0653C19.5521 54.9835 19.9842 56.0637 19.9842 57.36C19.9842 58.6563 19.6061 59.7365 18.7959 60.6547C17.9858 61.5729 16.9055 62.005 15.6633 62.005H4.64497C3.40271 62.005 2.32249 61.5729 1.40429 60.6547C0.486103 59.7365 0 58.6563 0 57.36ZM15.4472 94.7898C15.4472 93.5476 15.8793 92.4673 16.6895 91.4951L24.6292 83.7715C25.4393 82.9073 26.5195 82.5293 27.8158 82.5293C29.1121 82.5293 30.1923 82.9614 31.0565 83.7715C31.9207 84.5817 32.3528 85.6079 32.3528 86.8502C32.3528 88.1464 31.9207 89.3347 31.0565 90.3069L23.3869 97.9765C21.1724 99.7048 18.958 99.7048 16.7435 97.9765C15.8793 97.1123 15.4472 96.0321 15.4472 94.7898ZM15.4472 20.0382C15.4472 18.7959 15.8793 17.7157 16.6895 16.7435C17.7697 15.8253 18.904 15.3932 20.1462 15.3932C21.3345 15.3932 22.4147 15.8253 23.3329 16.6895L31.0565 24.6292C31.9207 25.4393 32.3528 26.5195 32.3528 27.8158C32.3528 29.1121 31.9207 30.1923 31.0565 31.0565C30.1923 31.9207 29.1121 32.3528 27.8158 32.3528C26.5195 32.3528 25.4393 31.9207 24.6292 31.0565L16.7435 23.3329C15.8793 22.4687 15.4472 21.3345 15.4472 20.0382ZM29.2201 57.36C29.2201 52.3369 30.4624 47.638 33.0009 43.3171C35.5394 38.9962 38.9421 35.5394 43.3171 33.0009C47.692 30.4624 52.3369 29.2201 57.36 29.2201C61.1408 29.2201 64.7595 29.9763 68.2703 31.4886C71.727 33.0009 74.7516 34.9993 77.2362 37.5378C79.7747 40.0764 81.7731 43.047 83.2314 46.5037C84.6897 49.9604 85.4459 53.6332 85.4459 57.414C85.4459 62.4911 84.2036 67.1901 81.6651 71.511C79.1265 75.8319 75.7238 79.2346 71.4029 81.7731C67.082 84.3116 62.383 85.5539 57.306 85.5539C52.2289 85.5539 47.5299 84.3116 43.209 81.7731C38.8881 79.2346 35.4854 75.8319 32.9469 71.511C30.5164 67.136 29.2201 62.4371 29.2201 57.36ZM38.402 57.36C38.402 62.6531 40.2384 67.136 43.9652 70.8628C47.638 74.5896 52.1209 76.48 57.414 76.48C62.7071 76.48 67.1901 74.5896 70.9168 70.8628C74.6436 67.136 76.534 62.6531 76.534 57.36C76.534 52.1749 74.6436 47.746 70.9168 44.0192C67.1901 40.3464 62.7071 38.5101 57.414 38.5101C52.1749 38.5101 47.692 40.3464 44.0192 44.0192C40.2384 47.746 38.402 52.1749 38.402 57.36ZM52.769 99.3808C52.769 98.0845 53.2011 97.0043 54.1193 96.1401C55.0375 95.2759 56.1177 94.8438 57.36 94.8438C58.6563 94.8438 59.7905 95.2759 60.6547 96.1401C61.5189 97.0043 61.951 98.0845 61.951 99.3808V110.129C61.951 111.425 61.5189 112.56 60.6007 113.478C59.6825 114.396 58.6023 114.828 57.36 114.828C56.1177 114.828 54.9835 114.396 54.1193 113.478C53.2011 112.56 52.769 111.425 52.769 110.129V99.3808ZM52.769 15.6633V4.64497C52.769 3.40271 53.2011 2.32249 54.1193 1.40429C55.0375 0.486103 56.1177 0 57.414 0C58.7103 0 59.7365 0.43209 60.6547 1.35028C61.5729 2.26847 62.005 3.3487 62.005 4.59096V15.6633C62.005 16.9055 61.5729 17.9318 60.6547 18.7959C59.7365 19.6601 58.6563 20.0382 57.414 20.0382C56.1717 20.0382 55.0375 19.6061 54.1733 18.7959C53.3091 17.9858 52.769 16.9055 52.769 15.6633ZM82.5833 86.8502C82.5833 85.6079 83.0154 84.5817 83.8255 83.8255C84.6357 82.9614 85.6619 82.5833 86.8502 82.5833C88.1464 82.5833 89.2267 83.0154 90.0908 83.8255L97.9765 91.5492C98.8407 92.4673 99.2728 93.6016 99.2728 94.8438C99.2728 96.0861 98.8407 97.1663 97.9765 98.0305C95.816 99.7049 93.6556 99.7049 91.4951 98.0305L83.8255 90.3609C83.0154 89.3887 82.5833 88.2545 82.5833 86.8502ZM82.5833 27.8698C82.5833 26.5195 83.0154 25.4393 83.8255 24.6832L91.4951 16.7435C92.4133 15.8793 93.4936 15.4472 94.6818 15.4472C95.9781 15.4472 97.0583 15.8793 97.9225 16.7975C98.8407 17.7157 99.2728 18.7959 99.2728 20.0382C99.2728 21.3885 98.8407 22.5227 97.9765 23.3869L90.0908 31.1105C89.1186 31.9747 88.0384 32.4068 86.8502 32.4068C85.6079 32.4068 84.6357 31.9747 83.8255 31.1105C83.0154 30.2463 82.5833 29.1661 82.5833 27.8698ZM94.7898 57.36C94.7898 56.0637 95.2219 54.9835 96.0861 54.0113C96.9503 53.1471 97.9765 52.715 99.1647 52.715H110.075C111.317 52.715 112.398 53.2011 113.316 54.1193C114.234 55.0375 114.72 56.1177 114.72 57.36C114.72 58.6023 114.234 59.6825 113.316 60.6007C112.398 61.5189 111.317 61.951 110.075 61.951H99.1647C97.9225 61.951 96.8423 61.5189 96.0321 60.6007C95.2219 59.6825 94.7898 58.6563 94.7898 57.36Z" fill="black"/>
</svg>
